<?xml version="1.0" encoding="UTF-8" standalone="no"?>
<!DOCTYPE svg PUBLIC "-//W3C//DTD SVG 1.1//EN" "http://www.w3.org/Graphics/SVG/1.1/DTD/svg11.dtd">
<svg width="100%" height="100%" viewBox="0 0 2000 2000" version="1.1" xmlns="http://www.w3.org/2000/svg" xmlns:xlink="http://www.w3.org/1999/xlink" xml:space="preserve" xmlns:serif="http://www.serif.com/" style="fill-rule:evenodd;clip-rule:evenodd;stroke-linejoin:round;stroke-miterlimit:2;">
    <g transform="matrix(0.820345,0,0,0.957396,83.675144,41.168023)">
        <g id="Ebene2">
            <rect x="-102" y="-43" width="2438" height="2089" style="fill:rgb(255,154,48);"/>
        </g>
    </g>
    <g id="Ebene1" transform="matrix(1,0,0,1,194.5,40)">
        <g transform="matrix(1.063927,0,0,1,-44.557078,39)">
            <path d="M678.713,1053.013C643.37,1017.128 621.337,966.53 621.337,910.5C621.337,801.773 704.306,713.5 806.5,713.5C908.694,713.5 991.663,801.773 991.663,910.5C991.663,966.53 969.63,1017.128 934.287,1053.013L934.328,1053C934.217,1053.103 934.105,1053.206 933.994,1053.309C933.171,1054.141 932.341,1054.965 931.504,1055.782C922.072,1065.746 916.609,1078.893 916,1095.935L916,2028L865.245,2028L865.245,1665C865.245,1659.481 861.033,1655 855.845,1655L757.155,1655C751.967,1655 747.755,1659.481 747.755,1665L747.755,2028L697,2028L697,1095.935C696.391,1078.893 690.928,1065.746 681.496,1055.782C680.659,1054.965 679.829,1054.141 679.006,1053.309C678.895,1053.206 678.783,1053.103 678.672,1053L678.713,1053.013ZM806.5,801.5C749.956,801.5 704.049,850.341 704.049,910.5C704.049,970.659 749.956,1019.5 806.5,1019.5C863.044,1019.5 908.951,970.659 908.951,910.5C908.951,850.341 863.044,801.5 806.5,801.5ZM865.245,1341C865.245,1335.481 861.033,1331 855.845,1331L757.155,1331C751.967,1331 747.755,1335.481 747.755,1341L747.755,1575C747.755,1580.519 751.967,1585 757.155,1585L855.845,1585C861.033,1585 865.245,1580.519 865.245,1575L865.245,1341ZM865.245,1123C865.245,1117.481 861.033,1113 855.845,1113L757.155,1113C751.967,1113 747.755,1117.481 747.755,1123L747.755,1251C747.755,1256.519 751.967,1261 757.155,1261L855.845,1261C861.033,1261 865.245,1256.519 865.245,1251L865.245,1123Z" style="fill:rgb(255,217,117);"/>
        </g>
        <g transform="matrix(0.746954,0,0,0.746954,60.570291,210.388941)">
            <path d="M684.421,1516.633C673.383,1509.832 666.302,1500.244 663.178,1487.868C660.054,1475.492 661.893,1463.785 668.694,1452.747C675.362,1441.926 684.804,1435.203 697.022,1432.578C709.239,1429.954 720.975,1432.109 732.229,1439.044C743.267,1445.845 750.306,1455.258 753.347,1467.284C756.388,1479.311 754.575,1490.734 747.907,1501.556C741.106,1512.594 731.584,1519.566 719.341,1522.474C707.099,1525.381 695.459,1523.435 684.421,1516.633Z" style="fill:rgb(91,50,0);fill-rule:nonzero;stroke:black;stroke-width:1.34px;"/>
            <path d="M515.48,1363.565C507.637,1353.241 504.489,1341.745 506.037,1329.075C507.585,1316.405 513.521,1306.149 523.844,1298.305C533.965,1290.616 545.197,1287.749 557.539,1289.706C569.88,1291.663 580.05,1297.904 588.047,1308.43C595.891,1318.753 599.063,1330.072 597.563,1342.385C596.064,1354.699 590.254,1364.701 580.133,1372.39C569.809,1380.234 558.414,1383.304 545.947,1381.603C533.479,1379.901 523.324,1373.888 515.48,1363.565Z" style="fill:rgb(91,50,0);fill-rule:nonzero;stroke:black;stroke-width:1.34px;"/>
            <path d="M413.063,1159.101C409.518,1146.631 410.773,1134.777 416.829,1123.541C422.885,1112.305 432.149,1104.915 444.62,1101.37C456.846,1097.894 468.35,1099.315 479.132,1105.632C489.913,1111.949 497.111,1121.466 500.726,1134.181C504.271,1146.652 503.103,1158.348 497.222,1169.27C491.341,1180.192 482.288,1187.391 470.061,1190.866C457.591,1194.412 445.859,1193.121 434.868,1186.996C423.877,1180.87 416.608,1171.572 413.063,1159.101Z" style="fill:rgb(91,50,0);fill-rule:nonzero;stroke:black;stroke-width:1.34px;"/>
            <path d="M392.238,930.661C393.468,917.755 398.946,907.168 408.671,898.902C418.397,890.636 429.713,887.118 442.619,888.348C455.273,889.553 465.474,895.058 473.222,904.862C480.97,914.666 484.217,926.148 482.963,939.308C481.733,952.214 476.393,962.686 466.945,970.724C457.496,978.761 446.445,982.177 433.792,980.971C420.886,979.741 410.426,974.275 402.412,964.573C394.399,954.872 391.008,943.568 392.238,930.661Z" style="fill:rgb(91,50,0);fill-rule:nonzero;stroke:black;stroke-width:1.34px;"/>
            <path d="M455.354,711.608C461.197,700.034 470.152,692.168 482.22,688.008C494.287,683.848 506.107,684.69 517.681,690.533C529.028,696.261 536.525,705.101 540.174,717.052C543.823,729.004 542.668,740.88 536.711,752.681C530.868,764.254 522.083,772.065 510.358,776.112C498.632,780.16 487.096,779.319 475.749,773.591C464.175,767.748 456.422,758.85 452.489,746.898C448.556,734.945 449.511,723.182 455.354,711.608Z" style="fill:rgb(91,50,0);fill-rule:nonzero;stroke:black;stroke-width:1.34px;"/>
            <path d="M594.636,529.507C604.282,520.844 615.482,516.764 628.236,517.268C640.99,517.773 651.699,522.848 660.362,532.494C668.855,541.95 672.632,552.909 671.694,565.37C670.755,577.83 665.368,588.477 655.534,597.31C645.888,605.973 634.868,610.063 622.472,609.577C610.077,609.092 599.633,604.122 591.14,594.665C582.477,585.019 578.482,573.914 579.156,561.349C579.831,548.784 584.991,538.17 594.636,529.507Z" style="fill:rgb(91,50,0);fill-rule:nonzero;stroke:black;stroke-width:1.34px;"/>
            <path d="M789.707,410.664C801.839,406.091 813.756,406.353 825.457,411.451C837.159,416.548 845.297,425.163 849.87,437.295C854.354,449.188 853.897,460.771 848.502,472.042C843.106,483.313 834.223,491.28 821.854,495.943C809.722,500.516 797.969,500.328 786.595,495.378C775.22,490.429 767.291,482.007 762.808,470.114C758.235,457.982 758.542,446.184 763.729,434.72C768.916,423.256 777.575,415.237 789.707,410.664Z" style="fill:rgb(91,50,0);fill-rule:nonzero;stroke:black;stroke-width:1.34px;"/>
            <path d="M1015.588,371.011C1028.552,371.175 1039.553,375.764 1048.591,384.777C1057.629,393.79 1062.066,404.778 1061.902,417.742C1061.741,430.452 1057.093,441.071 1047.96,449.599C1038.826,458.127 1027.65,462.307 1014.432,462.14C1001.468,461.975 990.593,457.515 981.805,448.76C973.018,440.004 968.705,429.272 968.867,416.562C969.031,403.598 973.618,392.724 982.628,383.94C991.637,375.156 1002.624,370.846 1015.588,371.011Z" style="fill:rgb(91,50,0);fill-rule:nonzero;stroke:black;stroke-width:1.34px;"/>
            <path d="M1239.66,415.892C1251.675,420.762 1260.253,429.038 1265.392,440.722C1270.532,452.406 1270.666,464.255 1265.796,476.271C1261.022,488.051 1252.829,496.251 1241.219,500.871C1229.608,505.492 1217.678,505.319 1205.426,500.354C1193.411,495.484 1184.903,487.373 1179.904,476.02C1174.905,464.668 1174.792,453.101 1179.567,441.321C1184.437,429.306 1192.666,420.846 1204.254,415.942C1215.842,411.038 1227.644,411.022 1239.66,415.892Z" style="fill:rgb(91,50,0);fill-rule:nonzero;stroke:black;stroke-width:1.34px;"/>
            <path d="M1433.066,540.304C1442.476,549.223 1447.442,560.059 1447.964,572.812C1448.485,585.566 1444.287,596.647 1435.368,606.057C1426.624,615.283 1416.005,619.928 1403.509,619.993C1391.013,620.059 1379.968,615.544 1370.373,606.451C1360.963,597.532 1356.002,586.876 1355.49,574.482C1354.978,562.088 1359.094,551.278 1367.838,542.053C1376.756,532.643 1387.505,527.769 1400.083,527.432C1412.662,527.095 1423.656,531.385 1433.066,540.304Z" style="fill:rgb(91,50,0);fill-rule:nonzero;stroke:black;stroke-width:1.34px;"/>
            <path d="M1566.911,724.403C1572.471,736.116 1573.194,748.014 1569.08,760.097C1564.966,772.18 1557.053,781.001 1545.341,786.56C1533.858,792.011 1522.277,792.513 1510.599,788.066C1498.921,783.62 1490.248,775.426 1484.579,763.483C1479.02,751.771 1478.236,740.043 1482.229,728.298C1486.222,716.554 1493.96,707.956 1505.443,702.506C1517.156,696.947 1528.939,696.278 1540.792,700.501C1552.645,704.723 1561.352,712.691 1566.911,724.403Z" style="fill:rgb(91,50,0);fill-rule:nonzero;stroke:black;stroke-width:1.34px;"/>
            <path d="M1625.061,946.544C1625.943,959.479 1622.258,970.814 1614.004,980.55C1605.75,990.287 1595.156,995.596 1582.221,996.479C1569.54,997.344 1558.58,993.569 1549.342,985.154C1540.105,976.739 1535.036,965.937 1534.136,952.748C1533.253,939.813 1536.821,928.613 1544.838,919.148C1552.856,909.683 1563.205,904.517 1575.887,903.652C1588.821,902.769 1600.03,906.463 1609.513,914.735C1618.995,923.006 1624.178,933.609 1625.061,946.544Z" style="fill:rgb(91,50,0);fill-rule:nonzero;stroke:black;stroke-width:1.34px;"/>
            <path d="M1598.803,1172.985C1594.949,1185.364 1587.415,1194.6 1576.199,1200.694C1564.983,1206.787 1553.186,1207.907 1540.807,1204.053C1528.671,1200.275 1519.817,1192.793 1514.247,1181.607C1508.677,1170.421 1507.857,1158.517 1511.786,1145.896C1515.64,1133.517 1523.015,1124.364 1533.913,1118.438C1544.81,1112.512 1556.327,1111.438 1568.463,1115.216C1580.842,1119.07 1589.957,1126.566 1595.808,1137.707C1601.658,1148.847 1602.657,1160.606 1598.803,1172.985Z" style="fill:rgb(91,50,0);fill-rule:nonzero;stroke:black;stroke-width:1.34px;"/>
            <path d="M1491.283,1375.407C1483.179,1385.528 1472.795,1391.38 1460.13,1392.963C1447.464,1394.547 1436.071,1391.287 1425.95,1383.184C1416.028,1375.239 1410.513,1365.044 1409.406,1352.597C1408.3,1340.15 1411.877,1328.767 1420.139,1318.448C1428.242,1308.327 1438.448,1302.495 1450.756,1300.951C1463.064,1299.407 1474.179,1302.608 1484.102,1310.552C1494.222,1318.655 1499.975,1328.96 1501.36,1341.466C1502.745,1353.973 1499.386,1365.286 1491.283,1375.407Z" style="fill:rgb(91,50,0);fill-rule:nonzero;stroke:black;stroke-width:1.34px;"/>
            <path d="M1317.817,1524.858C1306.599,1531.357 1294.8,1533.051 1282.421,1529.939C1270.042,1526.828 1260.603,1519.663 1254.104,1508.445C1247.732,1497.446 1246.284,1485.946 1249.76,1473.943C1253.237,1461.94 1260.694,1452.625 1272.132,1445.999C1283.351,1439.5 1294.976,1437.76 1307.007,1440.778C1319.039,1443.797 1328.241,1450.806 1334.612,1461.804C1341.111,1473.023 1342.742,1484.711 1339.503,1496.87C1336.264,1509.029 1329.035,1518.359 1317.817,1524.858Z" style="fill:rgb(91,50,0);fill-rule:nonzero;stroke:black;stroke-width:1.34px;"/>
        </g>
        <g transform="matrix(1.292409,0,0,1.292409,-489.247891,-329.338332)">
            <path d="M816.342,1539.828C809.267,1537.359 804.08,1532.825 800.781,1526.227C797.482,1519.629 797.067,1512.792 799.536,1505.718C801.957,1498.782 806.453,1493.815 813.024,1490.818C819.595,1487.82 826.487,1487.58 833.7,1490.098C840.775,1492.568 845.916,1497.008 849.125,1503.419C852.334,1509.83 852.728,1516.503 850.307,1523.439C847.838,1530.514 843.328,1535.631 836.778,1538.792C830.228,1541.952 823.416,1542.298 816.342,1539.828Z" style="fill:rgb(91,50,0);fill-rule:nonzero;stroke:black;stroke-width:0.77px;"/>
            <path d="M703.11,1485.995C696.731,1482.064 692.638,1476.522 690.833,1469.37C689.027,1462.217 690.09,1455.451 694.021,1449.071C697.875,1442.817 703.332,1438.932 710.393,1437.415C717.454,1435.898 724.237,1437.144 730.741,1441.151C737.121,1445.082 741.189,1450.523 742.947,1457.473C744.704,1464.424 743.656,1471.026 739.802,1477.281C735.872,1483.66 730.368,1487.69 723.293,1489.37C716.217,1491.051 709.49,1489.926 703.11,1485.995Z" style="fill:rgb(91,50,0);fill-rule:nonzero;stroke:black;stroke-width:0.77px;"/>
            <path d="M604.345,1409.522C598.945,1404.327 596.122,1398.044 595.875,1390.671C595.629,1383.298 598.103,1376.911 603.298,1371.511C608.391,1366.217 614.548,1363.578 621.771,1363.594C628.993,1363.61 635.357,1366.267 640.863,1371.563C646.263,1376.758 649.084,1382.938 649.327,1390.104C649.569,1397.269 647.144,1403.498 642.051,1408.793C636.856,1414.193 630.623,1416.963 623.352,1417.104C616.081,1417.244 609.745,1414.717 604.345,1409.522Z" style="fill:rgb(91,50,0);fill-rule:nonzero;stroke:black;stroke-width:0.77px;"/>
            <path d="M524.089,1313.946C519.912,1307.725 518.484,1300.986 519.805,1293.728C521.125,1286.47 524.896,1280.753 531.117,1276.576C537.216,1272.48 543.793,1271.206 550.848,1272.751C557.903,1274.297 563.56,1278.241 567.819,1284.584C571.996,1290.804 573.444,1297.442 572.163,1304.496C570.883,1311.55 567.193,1317.124 561.094,1321.22C554.873,1325.397 548.195,1326.784 541.059,1325.381C533.923,1323.979 528.266,1320.167 524.089,1313.946Z" style="fill:rgb(91,50,0);fill-rule:nonzero;stroke:black;stroke-width:0.77px;"/>
            <path d="M465.896,1203.285C463.145,1196.315 463.191,1189.426 466.032,1182.618C468.874,1175.811 473.78,1171.032 480.75,1168.281C487.584,1165.584 494.281,1165.745 500.842,1168.763C507.404,1171.781 512.087,1176.844 514.891,1183.95C517.642,1190.92 517.637,1197.714 514.878,1204.331C512.119,1210.948 507.323,1215.605 500.49,1218.302C493.52,1221.052 486.699,1220.98 480.028,1218.084C473.357,1215.188 468.646,1210.255 465.896,1203.285Z" style="fill:rgb(91,50,0);fill-rule:nonzero;stroke:black;stroke-width:0.77px;"/>
            <path d="M432.67,1081.963C431.49,1074.563 433.023,1067.847 437.268,1061.814C441.514,1055.781 447.336,1052.175 454.736,1050.995C461.991,1049.838 468.495,1051.442 474.249,1055.807C480.004,1060.171 483.482,1066.125 484.685,1073.67C485.865,1081.07 484.393,1087.702 480.27,1093.567C476.146,1099.432 470.457,1102.942 463.202,1104.099C455.803,1105.279 449.159,1103.734 443.271,1099.466C437.383,1095.197 433.849,1089.363 432.67,1081.963Z" style="fill:rgb(91,50,0);fill-rule:nonzero;stroke:black;stroke-width:0.77px;"/>
            <path d="M426.197,957.933C426.601,950.451 429.512,944.208 434.932,939.203C440.352,934.198 446.803,931.898 454.285,932.301C461.621,932.697 467.642,935.633 472.349,941.111C477.057,946.588 479.205,953.141 478.793,960.77C478.39,968.253 475.555,974.427 470.29,979.293C465.025,984.158 458.724,986.393 451.389,985.998C443.907,985.594 437.736,982.687 432.879,977.275C428.021,971.863 425.793,965.416 426.197,957.933Z" style="fill:rgb(91,50,0);fill-rule:nonzero;stroke:black;stroke-width:0.77px;"/>
            <path d="M446.448,833.753C448.452,826.533 452.639,821.062 459.009,817.341C465.379,813.62 472.174,812.761 479.394,814.765C486.472,816.73 491.721,820.893 495.139,827.255C498.558,833.617 499.245,840.479 497.202,847.841C495.198,855.061 491.101,860.481 484.913,864.1C478.724,867.719 472.09,868.546 465.011,866.581C457.791,864.577 452.391,860.41 448.812,854.079C445.232,847.749 444.444,840.973 446.448,833.753Z" style="fill:rgb(91,50,0);fill-rule:nonzero;stroke:black;stroke-width:0.77px;"/>
            <path d="M492.729,717.451C496.238,710.829 501.502,706.386 508.522,704.12C515.543,701.854 522.364,702.475 528.985,705.983C535.476,709.422 539.708,714.616 541.68,721.564C543.652,728.511 542.849,735.361 539.272,742.112C535.764,748.733 530.599,753.146 523.777,755.351C516.955,757.556 510.299,756.939 503.808,753.499C497.186,749.991 492.808,744.761 490.671,737.81C488.535,730.858 489.221,724.072 492.729,717.451Z" style="fill:rgb(91,50,0);fill-rule:nonzero;stroke:black;stroke-width:0.77px;"/>
            <path d="M562.264,614.411C567.094,608.682 573.18,605.453 580.521,604.724C587.862,603.995 594.397,606.046 600.125,610.876C605.742,615.611 608.778,621.583 609.235,628.79C609.693,635.998 607.459,642.522 602.534,648.363C597.704,654.092 591.722,657.312 584.588,658.024C577.454,658.735 571.079,656.723 565.463,651.988C559.734,647.158 556.561,641.12 555.944,633.873C555.328,626.627 557.434,620.14 562.264,614.411Z" style="fill:rgb(91,50,0);fill-rule:nonzero;stroke:black;stroke-width:0.77px;"/>
            <path d="M652.995,527.586C658.935,523.017 665.568,521.158 672.896,522.009C680.224,522.86 686.172,526.255 690.741,532.194C695.22,538.017 696.915,544.498 695.827,551.638C694.739,558.778 691.167,564.677 685.111,569.335C679.172,573.904 672.641,575.776 665.52,574.952C658.398,574.128 652.597,570.804 648.118,564.982C643.549,559.043 641.735,552.467 642.676,545.256C643.616,538.045 647.056,532.155 652.995,527.586Z" style="fill:rgb(91,50,0);fill-rule:nonzero;stroke:black;stroke-width:0.77px;"/>
            <path d="M759.237,462.563C766.011,459.36 772.888,458.952 779.868,461.341C786.848,463.729 791.939,468.31 795.142,475.084C798.282,481.725 798.562,488.419 795.982,495.164C793.402,501.91 788.658,506.915 781.751,510.181C774.977,513.384 768.198,513.826 761.414,511.508C754.63,509.19 749.667,504.71 746.527,498.069C743.325,491.295 742.949,484.484 745.4,477.637C747.851,470.79 752.463,465.765 759.237,462.563Z" style="fill:rgb(91,50,0);fill-rule:nonzero;stroke:black;stroke-width:0.77px;"/>
            <path d="M878.061,421.431C885.367,419.767 892.169,420.854 898.469,424.694C904.768,428.533 908.75,434.105 910.414,441.411C912.046,448.574 910.873,455.17 906.897,461.199C902.921,467.228 897.209,471.091 889.759,472.788C882.453,474.452 875.739,473.42 869.615,469.692C863.492,465.963 859.614,460.518 857.983,453.355C856.318,446.049 857.422,439.318 861.294,433.162C865.166,427.006 870.755,423.095 878.061,421.431Z" style="fill:rgb(91,50,0);fill-rule:nonzero;stroke:black;stroke-width:0.77px;"/>
            <path d="M1002.142,406.882C1009.635,406.811 1016.05,409.321 1021.388,414.413C1026.726,419.505 1029.431,425.797 1029.502,433.29C1029.572,440.636 1027.023,446.832 1021.855,451.876C1016.687,456.921 1010.283,459.48 1002.643,459.553C995.15,459.624 988.809,457.187 983.619,452.24C978.43,447.294 975.8,441.148 975.73,433.802C975.659,426.309 978.17,419.967 983.263,414.776C988.356,409.585 994.649,406.954 1002.142,406.882Z" style="fill:rgb(91,50,0);fill-rule:nonzero;stroke:black;stroke-width:0.77px;"/>
            <path d="M1126.887,419.022C1134.223,420.549 1139.956,424.369 1144.086,430.481C1148.217,436.593 1149.519,443.317 1147.992,450.653C1146.495,457.845 1142.685,463.355 1136.561,467.183C1130.436,471.011 1123.634,472.147 1116.154,470.59C1108.818,469.063 1103.142,465.331 1099.125,459.392C1095.109,453.454 1093.849,446.889 1095.346,439.696C1096.872,432.36 1100.677,426.699 1106.759,422.712C1112.842,418.726 1119.551,417.496 1126.887,419.022Z" style="fill:rgb(91,50,0);fill-rule:nonzero;stroke:black;stroke-width:0.77px;"/>
            <path d="M1245.912,457.563C1252.749,460.631 1257.527,465.594 1260.247,472.451C1262.968,479.308 1262.794,486.155 1259.726,492.991C1256.718,499.694 1251.812,504.256 1245.009,506.678C1238.205,509.1 1231.318,508.747 1224.347,505.619C1217.511,502.551 1212.769,497.686 1210.123,491.023C1207.477,484.36 1207.657,477.677 1210.665,470.975C1213.733,464.139 1218.665,459.427 1225.462,456.841C1232.259,454.255 1239.076,454.496 1245.912,457.563Z" style="fill:rgb(91,50,0);fill-rule:nonzero;stroke:black;stroke-width:0.77px;"/>
            <path d="M1353.568,520.472C1359.595,524.924 1363.208,530.79 1364.407,538.069C1365.606,545.348 1363.979,552.001 1359.526,558.028C1355.161,563.937 1349.397,567.35 1342.233,568.269C1335.07,569.188 1328.415,567.377 1322.27,562.837C1316.244,558.385 1312.646,552.622 1311.478,545.548C1310.311,538.475 1311.909,531.984 1316.274,526.075C1320.727,520.048 1326.549,516.494 1333.741,515.414C1340.932,514.333 1347.542,516.019 1353.568,520.472Z" style="fill:rgb(91,50,0);fill-rule:nonzero;stroke:black;stroke-width:0.77px;"/>
            <path d="M1445.465,604.807C1450.413,610.433 1452.704,616.93 1452.335,624.298C1451.967,631.666 1448.969,637.824 1443.343,642.773C1437.826,647.624 1431.47,649.741 1424.274,649.124C1417.079,648.506 1410.958,645.329 1405.913,639.592C1400.964,633.965 1398.667,627.572 1399.022,620.411C1399.377,613.251 1402.313,607.245 1407.83,602.393C1413.456,597.445 1419.898,595.203 1427.156,595.668C1434.413,596.134 1440.516,599.18 1445.465,604.807Z" style="fill:rgb(91,50,0);fill-rule:nonzero;stroke:black;stroke-width:0.77px;"/>
            <path d="M1517.599,706.996C1521.236,713.547 1522.092,720.382 1520.164,727.503C1518.236,734.624 1513.997,740.003 1507.446,743.641C1501.024,747.208 1494.363,747.924 1487.463,745.789C1480.564,743.655 1475.26,739.248 1471.55,732.569C1467.912,726.018 1467.029,719.282 1468.899,712.361C1470.77,705.44 1474.916,700.196 1481.339,696.63C1487.889,692.992 1494.661,692.172 1501.653,694.171C1508.645,696.17 1513.961,700.445 1517.599,706.996Z" style="fill:rgb(91,50,0);fill-rule:nonzero;stroke:black;stroke-width:0.77px;"/>
            <path d="M1566.45,822.97C1568.588,830.151 1567.948,837.01 1564.529,843.547C1561.11,850.084 1555.809,854.422 1548.628,856.56C1541.587,858.657 1534.929,857.918 1528.652,854.345C1522.376,850.771 1518.148,845.323 1515.968,838.001C1513.829,830.819 1514.42,824.052 1517.741,817.697C1521.061,811.343 1526.241,807.118 1533.282,805.022C1540.464,802.883 1547.252,803.545 1553.648,807.006C1560.044,810.467 1564.312,815.788 1566.45,822.97Z" style="fill:rgb(91,50,0);fill-rule:nonzero;stroke:black;stroke-width:0.77px;"/>
            <path d="M1589.001,945.448C1589.558,952.92 1587.47,959.485 1582.735,965.142C1578,970.8 1571.897,973.907 1564.424,974.464C1557.099,975.011 1550.751,972.869 1545.381,968.039C1540.011,963.21 1537.042,956.985 1536.474,949.366C1535.917,941.894 1537.937,935.408 1542.537,929.908C1547.136,924.408 1553.098,921.385 1560.424,920.839C1567.896,920.281 1574.388,922.375 1579.899,927.121C1585.409,931.867 1588.443,937.976 1589.001,945.448Z" style="fill:rgb(91,50,0);fill-rule:nonzero;stroke:black;stroke-width:0.77px;"/>
            <path d="M1585.022,1070.669C1583.982,1078.09 1580.549,1084.063 1574.722,1088.587C1568.896,1093.112 1562.272,1094.854 1554.851,1093.815C1547.576,1092.795 1541.827,1089.356 1537.604,1083.498C1533.38,1077.639 1531.799,1070.927 1532.859,1063.361C1533.898,1055.94 1537.249,1050.03 1542.909,1045.63C1548.57,1041.231 1555.038,1039.541 1562.313,1040.56C1569.734,1041.6 1575.634,1045.023 1580.013,1050.829C1584.392,1056.635 1586.061,1063.249 1585.022,1070.669Z" style="fill:rgb(91,50,0);fill-rule:nonzero;stroke:black;stroke-width:0.77px;"/>
            <path d="M1554.402,1192.068C1551.791,1199.091 1547.155,1204.186 1540.492,1207.353C1533.829,1210.519 1526.985,1210.797 1519.962,1208.186C1513.076,1205.627 1508.2,1201.032 1505.335,1194.403C1502.47,1187.773 1502.368,1180.878 1505.03,1173.716C1507.64,1166.693 1512.183,1161.641 1518.657,1158.561C1525.131,1155.481 1531.811,1155.221 1538.697,1157.781C1545.721,1160.391 1550.747,1165.003 1553.775,1171.614C1556.804,1178.226 1557.013,1185.044 1554.402,1192.068Z" style="fill:rgb(91,50,0);fill-rule:nonzero;stroke:black;stroke-width:0.77px;"/>
            <path d="M1498.417,1304.049C1494.362,1310.351 1488.741,1314.334 1481.554,1315.999C1474.368,1317.664 1467.624,1316.47 1461.323,1312.415C1455.145,1308.44 1451.367,1302.907 1449.988,1295.818C1448.61,1288.728 1449.988,1281.971 1454.122,1275.546C1458.177,1269.245 1463.696,1265.284 1470.68,1263.663C1477.664,1262.042 1484.244,1263.219 1490.422,1267.194C1496.723,1271.249 1500.645,1276.83 1502.186,1283.937C1503.728,1291.044 1502.471,1297.748 1498.417,1304.049Z" style="fill:rgb(91,50,0);fill-rule:nonzero;stroke:black;stroke-width:0.77px;"/>
            <path d="M1420.075,1401.263C1414.777,1406.562 1408.439,1409.263 1401.063,1409.367C1393.687,1409.471 1387.349,1406.874 1382.051,1401.575C1376.856,1396.381 1374.337,1390.173 1374.493,1382.953C1374.648,1375.732 1377.428,1369.421 1382.83,1364.018C1388.128,1358.72 1394.362,1356.019 1401.53,1355.915C1408.699,1355.811 1414.881,1358.356 1420.075,1363.551C1425.374,1368.849 1428.023,1375.135 1428.023,1382.407C1428.023,1389.68 1425.374,1395.965 1420.075,1401.263Z" style="fill:rgb(91,50,0);fill-rule:nonzero;stroke:black;stroke-width:0.77px;"/>
            <path d="M1322.92,1479.678C1316.619,1483.733 1309.853,1485.029 1302.622,1483.567C1295.391,1482.105 1289.749,1478.223 1285.694,1471.922C1281.719,1465.744 1280.572,1459.144 1282.255,1452.12C1283.938,1445.097 1287.992,1439.518 1294.417,1435.384C1300.718,1431.329 1307.383,1430.011 1314.411,1431.429C1321.438,1432.847 1326.94,1436.645 1330.915,1442.823C1334.97,1449.124 1336.226,1455.828 1334.685,1462.935C1333.143,1470.042 1329.221,1475.623 1322.92,1479.678Z" style="fill:rgb(91,50,0);fill-rule:nonzero;stroke:black;stroke-width:0.77px;"/>
            <path d="M1210.981,1535.748C1203.957,1538.359 1197.071,1538.176 1190.321,1535.198C1183.572,1532.221 1178.891,1527.221 1176.281,1520.197C1173.721,1513.311 1174.016,1506.618 1177.164,1500.118C1180.313,1493.619 1185.468,1489.038 1192.629,1486.376C1199.653,1483.765 1206.445,1483.906 1213.006,1486.796C1219.566,1489.687 1224.127,1494.576 1226.686,1501.462C1229.297,1508.485 1229.088,1515.303 1226.059,1521.915C1223.031,1528.527 1218.005,1533.138 1210.981,1535.748Z" style="fill:rgb(91,50,0);fill-rule:nonzero;stroke:black;stroke-width:0.77px;"/>
        </g>
    </g>
</svg>
